<svg width="120" height="120" viewBox="0 0 120 120" fill="none" xmlns="http://www.w3.org/2000/svg">
  <!-- Main background circle -->
  <circle cx="60" cy="60" r="60" fill="#10B981" fill-opacity="0.9"/>
  <circle cx="60" cy="60" r="50" fill="#059669" fill-opacity="0.95"/>
  
  <!-- Dumbbell design -->
  <rect x="25" y="52" width="70" height="6" rx="3" fill="white"/>
  <rect x="35" y="46" width="6" height="18" rx="3" fill="white"/>
  <rect x="79" y="46" width="6" height="18" rx="3" fill="white"/>
  
  <!-- Weight plates -->
  <circle cx="30" cy="55" r="12" fill="#f59e0b"/>
  <circle cx="30" cy="55" r="8" fill="#d97706"/>
  <circle cx="30" cy="55" r="4" fill="#b45309"/>
  
  <circle cx="90" cy="55" r="12" fill="#f59e0b"/>
  <circle cx="90" cy="55" r="8" fill="#d97706"/>
  <circle cx="90" cy="55" r="4" fill="#b45309"/>
  
  <!-- Heart rate monitor line -->
  <path d="M25 80 L35 80 L40 70 L45 90 L50 75 L55 83 L60 78 L65 82 L70 75 L75 85 L80 70 L85 80 L95 80" stroke="white" stroke-width="3" stroke-linecap="round" stroke-linejoin="round"/>
  
  <!-- Heart icon -->
  <path d="M60 30C60 30 55 25 50 25C45 25 40 30 40 35C40 45 60 55 60 55C60 55 80 45 80 35C80 30 75 25 70 25C65 25 60 30 60 30Z" fill="#ef4444"/>
</svg> 