<svg width="24" height="24" viewBox="0 0 24 24" fill="none" xmlns="http://www.w3.org/2000/svg">
  <circle cx="12" cy="12" r="10" fill="#FFD700"/>
  <circle cx="12" cy="12" r="8" fill="#FFC800"/>
  <path d="M12 6C8.68629 6 6 8.68629 6 12C6 15.3137 8.68629 18 12 18C15.3137 18 18 15.3137 18 12C18 8.68629 15.3137 6 12 6ZM12 16C9.79086 16 8 14.2091 8 12C8 9.79086 9.79086 8 12 8C14.2091 8 16 9.79086 16 12C16.0013 12.5302 15.8978 13.0539 15.6968 13.5399C15.4957 14.026 15.2013 14.4635 14.8333 14.8296C14.4653 15.1956 14.0263 15.4876 13.539 15.686C13.0517 15.8843 12.5274 15.9849 12 15.9812V16Z" fill="white"/>
</svg> 